<?xml version="1.0" encoding="UTF-8" standalone="no"?>
<svg
   width="127"
   height="32"
   viewBox="0 0 127 32"
   fill="none"
   version="1.1"
   id="svg1"
   sodipodi:docname="cartesi.svg"
   inkscape:version="1.3.2 (091e20ef0f, 2023-11-25, custom)"
   xmlns:inkscape="http://www.inkscape.org/namespaces/inkscape"
   xmlns:sodipodi="http://sodipodi.sourceforge.net/DTD/sodipodi-0.dtd"
   xmlns="http://www.w3.org/2000/svg"
   xmlns:svg="http://www.w3.org/2000/svg">
  <defs
     id="defs1" />
  <sodipodi:namedview
     id="namedview1"
     pagecolor="#000000"
     bordercolor="#666666"
     borderopacity="1.0"
     inkscape:showpageshadow="2"
     inkscape:pageopacity="0.0"
     inkscape:pagecheckerboard="0"
     inkscape:deskcolor="#d1d1d1"
     inkscape:zoom="14.38542"
     inkscape:cx="70.766094"
     inkscape:cy="21.341052"
     inkscape:window-width="3840"
     inkscape:window-height="2128"
     inkscape:window-x="0"
     inkscape:window-y="32"
     inkscape:window-maximized="1"
     inkscape:current-layer="svg1" />
  <path
     fill-rule="evenodd"
     clip-rule="evenodd"
     d="M 8.38837,9.18897 17.396,0 21.4412,9.87356 17.0369,14.3662 15.212,9.18897 Z M 0.39,10.9693 3.93667,21.0317 h 6.56403 l 5.1549,-5.2573 -1.6938,-4.8051 z m 17.3036,5.2609 5.1596,-5.2609 h 6.564 l 3.5467,10.0624 H 19.3865 Z M 15.9579,32 l -4.0452,-9.8736 4.4006,-4.4879 1.8231,5.1725 h 6.831 z M 78.5506,10.946 V 8.23277 H 75.5779 V 23.7682 h 3.0378 v -7.7835 c 0,-3.4239 1.7115,-5.0061 4.2639,-5.0061 h 1.2482 V 8.2337 h -1.011 c -1.5832,0 -3.436,0.32276 -4.5662,2.7133 z m 15.0861,5.021 c 0,-4.8675 3.5188,-8.18907 7.4253,-8.18907 V 7.777 c 4.779,0 7.459,3.289 7.459,8.1258 0,0.3869 -0.032,0.7739 -0.065,0.9674 H 96.7686 c 0.0651,2.7727 2.0668,4.7075 4.6814,4.7075 2.03,0 3.24,-0.9004 3.938,-2.1608 h 3.015 c -0.89,2.7105 -3.365,4.8368 -6.953,4.8368 -4.1643,0 -7.8133,-3.0304 -7.8133,-8.2867 z m 7.4573,-5.513 c -2.5507,0 -4.1003,1.9672 -4.2296,3.9661 h 8.4916 c -0.064,-2.2249 -1.517,-3.9661 -4.262,-3.9661 z m 24.831,-2.18774 h -2.892 V 23.7672 h 2.892 z m -3.576,-3.64527 c 0,-1.19617 0.947,-2.14027 2.114,-2.14027 1.2,0 2.147,0.97572 2.147,2.14027 0,1.16455 -0.98,2.10959 -2.147,2.10959 -1.167,0 -2.114,-0.91341 -2.114,-2.10959 z M 88.4642,3.32343 h -3.037 V 20.8028 c 0,1.6371 1.3274,2.9644 2.9644,2.9644 H 92.901 V 21.0224 H 88.4632 V 10.9776 H 92.901 V 8.23277 H 88.4632 V 3.32436 Z M 47.051,15.9995 c 0,3.5197 2.2315,5.4498 4.7382,5.4498 l -9e-4,-9e-4 c 2.2733,0 3.3365,-1.1944 3.8192,-2.0315 h 3.1746 c -0.7404,2.2249 -2.9644,4.8368 -6.9929,4.8368 -4.5121,0 -7.8318,-3.4183 -7.8318,-8.2542 0,-4.8358 3.3848,-8.22157 7.8002,-8.22157 4.1252,0 6.2516,2.57927 6.8971,4.93357 h -3.1858 c -0.6055,-1.1358 -1.7338,-2.1282 -3.7113,-2.1282 -2.45,0 -4.7066,1.8965 -4.7066,5.4162 z m 70.254,-1.1599 -2.509,-0.5478 c -1.191,-0.2577 -1.771,-0.9348 -1.771,-1.8706 0,-1.0641 0.936,-2.063 2.482,-2.063 2.155,0 2.899,1.3478 3.055,2.2537 h 2.817 c -0.386,-2.92716 -2.408,-4.83304 -5.872,-4.83304 -3.024,0 -5.41,2.25744 -5.41,4.90094 0,2.1933 1.449,3.8369 3.862,4.3531 l 2.639,0.5804 c 1.288,0.2903 1.996,1.0316 1.996,1.9989 0,1.0967 -0.934,2.0631 -2.64,2.0631 -1.886,0 -3.054,-0.9599 -3.464,-2.2575 h -3.008 c 0.574,3.2928 2.885,4.8368 6.44,4.8368 3.83,0 5.664,-2.6118 5.664,-4.8042 0,-2.1924 -1.479,-3.9987 -4.281,-4.6108 z M 60.3717,12.7115 c 0.2698,-2.5394 2.6593,-4.93264 6.3353,-4.93264 4.6405,0 6.445,2.64444 6.445,5.67484 V 23.771 h -2.9318 v -2.0957 c -0.6781,1.0967 -2.224,2.5793 -4.9949,2.5793 -3.1579,0 -5.1884,-2.1923 -5.1884,-4.6433 0,-2.7728 2.0305,-4.3205 4.7047,-4.7066 l 4.1875,-0.6129 c 0.9348,-0.1293 1.1925,-0.613 1.1925,-1.1609 0,-1.5152 -0.9981,-2.7727 -3.3504,-2.7727 -1.8092,0 -2.9412,0.9562 -3.3579,2.3533 z m 5.2721,8.9964 c 2.4808,0 4.4787,-1.1934 4.4787,-4.5782 h -9e-4 V 16.42 l -4.7354,0.7097 c -1.2883,0.1934 -2.2566,0.9348 -2.2566,2.3207 0,1.1608 0.9683,2.2575 2.5142,2.2575 z"
     id="path1"
     style="fill:#ffffff;fill-opacity:1" />
</svg>
